<mxfile host="65bd71144e">
    <diagram id="CLsiUjKhX6qiHjjYLShM" name="第 1 页">
        <mxGraphModel dx="928" dy="441" grid="1" gridSize="10" guides="1" tooltips="1" connect="1" arrows="1" fold="1" page="1" pageScale="1" pageWidth="1169" pageHeight="827" math="0" shadow="0">
            <root>
                <mxCell id="0"/>
                <mxCell id="1" parent="0"/>
                <mxCell id="11" value="" style="group" parent="1" vertex="1" connectable="0">
                    <mxGeometry x="279.36" y="40" width="160.64" height="120" as="geometry"/>
                </mxCell>
                <mxCell id="4" value="" style="whiteSpace=wrap;html=1;fillColor=#647687;strokeColor=#314354;fontColor=#ffffff;" parent="11" vertex="1">
                    <mxGeometry x="0.6399999999999864" width="159.36" height="120" as="geometry"/>
                </mxCell>
                <mxCell id="6" value="" style="edgeStyle=none;orthogonalLoop=1;jettySize=auto;html=1;endArrow=none;endFill=0;entryX=1.004;entryY=0.341;entryDx=0;entryDy=0;entryPerimeter=0;rounded=0;" parent="11" edge="1">
                    <mxGeometry width="100" relative="1" as="geometry">
                        <mxPoint y="29.999999999999986" as="sourcePoint"/>
                        <mxPoint x="160" y="30.460000000000022" as="targetPoint"/>
                        <Array as="points"/>
                    </mxGeometry>
                </mxCell>
                <mxCell id="7" value="" style="edgeStyle=none;orthogonalLoop=1;jettySize=auto;html=1;endArrow=none;endFill=0;entryX=1.004;entryY=0.341;entryDx=0;entryDy=0;entryPerimeter=0;rounded=0;" parent="11" edge="1">
                    <mxGeometry width="100" relative="1" as="geometry">
                        <mxPoint x="0.6399999999999864" y="40" as="sourcePoint"/>
                        <mxPoint x="160.64" y="40.460000000000036" as="targetPoint"/>
                        <Array as="points"/>
                    </mxGeometry>
                </mxCell>
                <mxCell id="8" value="MonsterBuilder" style="text;html=1;align=center;verticalAlign=middle;resizable=0;points=[];autosize=1;strokeColor=none;fillColor=none;" parent="11" vertex="1">
                    <mxGeometry x="30.639999999999986" width="100" height="30" as="geometry"/>
                </mxCell>
                <mxCell id="9" value="&lt;div style=&quot;text-align: left;&quot;&gt;&lt;span style=&quot;background-color: initial;&quot;&gt;+getMonster()&lt;/span&gt;&lt;/div&gt;&lt;div style=&quot;font-style: italic; text-align: left;&quot;&gt;&lt;i style=&quot;background-color: initial;&quot;&gt;+loadTrunk()&lt;/i&gt;&lt;/div&gt;&lt;div style=&quot;font-style: italic; text-align: left;&quot;&gt;&lt;i style=&quot;background-color: initial;&quot;&gt;+loadHead()&lt;/i&gt;&lt;/div&gt;&lt;div style=&quot;font-style: italic; text-align: left;&quot;&gt;&lt;i style=&quot;background-color: initial;&quot;&gt;+loadLimbs()&lt;/i&gt;&lt;/div&gt;&lt;div style=&quot;text-align: left;&quot;&gt;&lt;span style=&quot;background-color: initial;&quot;&gt;-mMonster:MonsterV2*&lt;/span&gt;&lt;/div&gt;" style="text;html=1;align=center;verticalAlign=middle;resizable=0;points=[];autosize=1;strokeColor=none;fillColor=none;" parent="11" vertex="1">
                    <mxGeometry x="6.279999999999986" y="30" width="150" height="90" as="geometry"/>
                </mxCell>
                <mxCell id="13" value="" style="group" parent="1" vertex="1" connectable="0">
                    <mxGeometry x="120" y="200" width="160.64" height="120" as="geometry"/>
                </mxCell>
                <mxCell id="14" value="" style="whiteSpace=wrap;html=1;fillColor=#647687;strokeColor=#314354;fontColor=#ffffff;" parent="13" vertex="1">
                    <mxGeometry x="0.6399999999999864" width="159.36" height="120" as="geometry"/>
                </mxCell>
                <mxCell id="15" value="" style="edgeStyle=none;orthogonalLoop=1;jettySize=auto;html=1;endArrow=none;endFill=0;entryX=1.004;entryY=0.341;entryDx=0;entryDy=0;entryPerimeter=0;rounded=0;" parent="13" edge="1">
                    <mxGeometry width="100" relative="1" as="geometry">
                        <mxPoint y="29.999999999999986" as="sourcePoint"/>
                        <mxPoint x="160" y="30.460000000000022" as="targetPoint"/>
                        <Array as="points"/>
                    </mxGeometry>
                </mxCell>
                <mxCell id="16" value="" style="edgeStyle=none;orthogonalLoop=1;jettySize=auto;html=1;endArrow=none;endFill=0;entryX=1.004;entryY=0.341;entryDx=0;entryDy=0;entryPerimeter=0;rounded=0;" parent="13" edge="1">
                    <mxGeometry width="100" relative="1" as="geometry">
                        <mxPoint x="0.6399999999999864" y="40" as="sourcePoint"/>
                        <mxPoint x="160.64" y="40.460000000000036" as="targetPoint"/>
                        <Array as="points"/>
                    </mxGeometry>
                </mxCell>
                <mxCell id="17" value="UndeadBuilder" style="text;html=1;align=center;verticalAlign=middle;resizable=0;points=[];autosize=1;strokeColor=none;fillColor=none;" parent="13" vertex="1">
                    <mxGeometry x="30.639999999999986" width="100" height="30" as="geometry"/>
                </mxCell>
                <mxCell id="18" value="&lt;div style=&quot;text-align: left;&quot;&gt;&lt;span style=&quot;background-color: initial;&quot;&gt;+getMonster()&lt;/span&gt;&lt;/div&gt;&lt;i&gt;&lt;div style=&quot;text-align: left;&quot;&gt;&lt;i style=&quot;background-color: initial;&quot;&gt;+loadTrunk()&lt;/i&gt;&lt;/div&gt;&lt;div style=&quot;text-align: left;&quot;&gt;&lt;i style=&quot;background-color: initial;&quot;&gt;+loadHead()&lt;/i&gt;&lt;/div&gt;&lt;div style=&quot;text-align: left;&quot;&gt;&lt;i style=&quot;background-color: initial;&quot;&gt;+loadLimbs()&lt;/i&gt;&lt;/div&gt;&lt;/i&gt;" style="text;html=1;align=center;verticalAlign=middle;resizable=0;points=[];autosize=1;strokeColor=none;fillColor=none;" parent="13" vertex="1">
                    <mxGeometry x="30.639999999999986" y="50" width="100" height="70" as="geometry"/>
                </mxCell>
                <mxCell id="19" value="" style="group" parent="1" vertex="1" connectable="0">
                    <mxGeometry x="280" y="200" width="160.64" height="120" as="geometry"/>
                </mxCell>
                <mxCell id="20" value="" style="whiteSpace=wrap;html=1;fillColor=#647687;strokeColor=#314354;fontColor=#ffffff;" parent="19" vertex="1">
                    <mxGeometry x="0.6399999999999864" width="159.36" height="120" as="geometry"/>
                </mxCell>
                <mxCell id="21" value="" style="edgeStyle=none;orthogonalLoop=1;jettySize=auto;html=1;endArrow=none;endFill=0;entryX=1.004;entryY=0.341;entryDx=0;entryDy=0;entryPerimeter=0;rounded=0;" parent="19" edge="1">
                    <mxGeometry width="100" relative="1" as="geometry">
                        <mxPoint y="29.999999999999986" as="sourcePoint"/>
                        <mxPoint x="160" y="30.460000000000022" as="targetPoint"/>
                        <Array as="points"/>
                    </mxGeometry>
                </mxCell>
                <mxCell id="22" value="" style="edgeStyle=none;orthogonalLoop=1;jettySize=auto;html=1;endArrow=none;endFill=0;entryX=1.004;entryY=0.341;entryDx=0;entryDy=0;entryPerimeter=0;rounded=0;" parent="19" edge="1">
                    <mxGeometry width="100" relative="1" as="geometry">
                        <mxPoint x="0.6399999999999864" y="40" as="sourcePoint"/>
                        <mxPoint x="160.64" y="40.460000000000036" as="targetPoint"/>
                        <Array as="points"/>
                    </mxGeometry>
                </mxCell>
                <mxCell id="23" value="ElementBuilder" style="text;html=1;align=center;verticalAlign=middle;resizable=0;points=[];autosize=1;strokeColor=none;fillColor=none;" parent="19" vertex="1">
                    <mxGeometry x="30.639999999999986" width="100" height="30" as="geometry"/>
                </mxCell>
                <mxCell id="24" value="&lt;div style=&quot;text-align: left;&quot;&gt;&lt;span style=&quot;background-color: initial;&quot;&gt;+getMonster()&lt;/span&gt;&lt;/div&gt;&lt;i&gt;&lt;div style=&quot;text-align: left;&quot;&gt;&lt;i style=&quot;background-color: initial;&quot;&gt;+loadTrunk()&lt;/i&gt;&lt;/div&gt;&lt;div style=&quot;text-align: left;&quot;&gt;&lt;i style=&quot;background-color: initial;&quot;&gt;+loadHead()&lt;/i&gt;&lt;/div&gt;&lt;div style=&quot;text-align: left;&quot;&gt;&lt;i style=&quot;background-color: initial;&quot;&gt;+loadLimbs()&lt;/i&gt;&lt;/div&gt;&lt;/i&gt;" style="text;html=1;align=center;verticalAlign=middle;resizable=0;points=[];autosize=1;strokeColor=none;fillColor=none;" parent="19" vertex="1">
                    <mxGeometry x="30.639999999999986" y="50" width="100" height="70" as="geometry"/>
                </mxCell>
                <mxCell id="25" value="" style="group" parent="1" vertex="1" connectable="0">
                    <mxGeometry x="440" y="200" width="160.64" height="120" as="geometry"/>
                </mxCell>
                <mxCell id="26" value="" style="whiteSpace=wrap;html=1;fillColor=#647687;strokeColor=#314354;fontColor=#ffffff;" parent="25" vertex="1">
                    <mxGeometry x="0.6399999999999864" width="159.36" height="120" as="geometry"/>
                </mxCell>
                <mxCell id="27" value="" style="edgeStyle=none;orthogonalLoop=1;jettySize=auto;html=1;endArrow=none;endFill=0;entryX=1.004;entryY=0.341;entryDx=0;entryDy=0;entryPerimeter=0;rounded=0;" parent="25" edge="1">
                    <mxGeometry width="100" relative="1" as="geometry">
                        <mxPoint y="29.999999999999986" as="sourcePoint"/>
                        <mxPoint x="160" y="30.460000000000022" as="targetPoint"/>
                        <Array as="points"/>
                    </mxGeometry>
                </mxCell>
                <mxCell id="28" value="" style="edgeStyle=none;orthogonalLoop=1;jettySize=auto;html=1;endArrow=none;endFill=0;entryX=1.004;entryY=0.341;entryDx=0;entryDy=0;entryPerimeter=0;rounded=0;" parent="25" edge="1">
                    <mxGeometry width="100" relative="1" as="geometry">
                        <mxPoint x="0.6399999999999864" y="40" as="sourcePoint"/>
                        <mxPoint x="160.64" y="40.460000000000036" as="targetPoint"/>
                        <Array as="points"/>
                    </mxGeometry>
                </mxCell>
                <mxCell id="29" value="MechanicBuilder" style="text;html=1;align=center;verticalAlign=middle;resizable=0;points=[];autosize=1;strokeColor=none;fillColor=none;" parent="25" vertex="1">
                    <mxGeometry x="25.639999999999986" width="110" height="30" as="geometry"/>
                </mxCell>
                <mxCell id="30" value="&lt;div style=&quot;text-align: left;&quot;&gt;&lt;span style=&quot;background-color: initial;&quot;&gt;+getMonster()&lt;/span&gt;&lt;/div&gt;&lt;i&gt;&lt;div style=&quot;text-align: left;&quot;&gt;&lt;i style=&quot;background-color: initial;&quot;&gt;+loadTrunk()&lt;/i&gt;&lt;/div&gt;&lt;div style=&quot;text-align: left;&quot;&gt;&lt;i style=&quot;background-color: initial;&quot;&gt;+loadHead()&lt;/i&gt;&lt;/div&gt;&lt;div style=&quot;text-align: left;&quot;&gt;&lt;i style=&quot;background-color: initial;&quot;&gt;+loadLimbs()&lt;/i&gt;&lt;/div&gt;&lt;/i&gt;" style="text;html=1;align=center;verticalAlign=middle;resizable=0;points=[];autosize=1;strokeColor=none;fillColor=none;" parent="25" vertex="1">
                    <mxGeometry x="30.639999999999986" y="50" width="100" height="70" as="geometry"/>
                </mxCell>
                <mxCell id="31" style="edgeStyle=none;html=1;entryX=0.503;entryY=1.025;entryDx=0;entryDy=0;entryPerimeter=0;" parent="1" source="23" target="9" edge="1">
                    <mxGeometry relative="1" as="geometry"/>
                </mxCell>
                <mxCell id="32" style="edgeStyle=orthogonalEdgeStyle;html=1;entryX=0.561;entryY=-0.016;entryDx=0;entryDy=0;entryPerimeter=0;rounded=0;endArrow=none;endFill=0;" parent="1" source="17" target="29" edge="1">
                    <mxGeometry relative="1" as="geometry">
                        <Array as="points">
                            <mxPoint x="201" y="180"/>
                            <mxPoint x="527" y="180"/>
                        </Array>
                    </mxGeometry>
                </mxCell>
                <mxCell id="38" value="" style="group" parent="1" vertex="1" connectable="0">
                    <mxGeometry x="120.32" y="360" width="160.32" height="90" as="geometry"/>
                </mxCell>
                <mxCell id="33" value="" style="group;fillColor=#eeeeee;strokeColor=#36393d;container=0;" parent="38" vertex="1" connectable="0">
                    <mxGeometry x="0.3200000000000216" width="160" height="90" as="geometry"/>
                </mxCell>
                <mxCell id="36" value="" style="edgeStyle=none;orthogonalLoop=1;jettySize=auto;html=1;endArrow=none;endFill=0;entryX=1.004;entryY=0.341;entryDx=0;entryDy=0;entryPerimeter=0;rounded=0;" parent="38" edge="1">
                    <mxGeometry width="100" relative="1" as="geometry">
                        <mxPoint x="0.3199999999999932" y="30" as="sourcePoint"/>
                        <mxPoint x="160.32" y="30.460000000000036" as="targetPoint"/>
                        <Array as="points"/>
                    </mxGeometry>
                </mxCell>
                <mxCell id="37" value="" style="edgeStyle=none;orthogonalLoop=1;jettySize=auto;html=1;endArrow=none;endFill=0;entryX=1.004;entryY=0.341;entryDx=0;entryDy=0;entryPerimeter=0;rounded=0;" parent="38" edge="1">
                    <mxGeometry width="100" relative="1" as="geometry">
                        <mxPoint y="40" as="sourcePoint"/>
                        <mxPoint x="160" y="40.460000000000036" as="targetPoint"/>
                        <Array as="points"/>
                    </mxGeometry>
                </mxCell>
                <mxCell id="47" value="UndeadMonster" style="text;html=1;align=center;verticalAlign=middle;resizable=0;points=[];autosize=1;strokeColor=none;fillColor=none;" parent="38" vertex="1">
                    <mxGeometry x="25.319999999999993" width="110" height="30" as="geometry"/>
                </mxCell>
                <mxCell id="39" value="" style="group" parent="1" vertex="1" connectable="0">
                    <mxGeometry x="280" y="360" width="160.32" height="90" as="geometry"/>
                </mxCell>
                <mxCell id="40" value="" style="group;fillColor=#eeeeee;strokeColor=#36393d;container=0;" parent="39" vertex="1" connectable="0">
                    <mxGeometry x="0.3200000000000216" width="160" height="90" as="geometry"/>
                </mxCell>
                <mxCell id="41" value="" style="edgeStyle=none;orthogonalLoop=1;jettySize=auto;html=1;endArrow=none;endFill=0;entryX=1.004;entryY=0.341;entryDx=0;entryDy=0;entryPerimeter=0;rounded=0;" parent="39" edge="1">
                    <mxGeometry width="100" relative="1" as="geometry">
                        <mxPoint x="0.3199999999999932" y="30" as="sourcePoint"/>
                        <mxPoint x="160.32" y="30.460000000000036" as="targetPoint"/>
                        <Array as="points"/>
                    </mxGeometry>
                </mxCell>
                <mxCell id="42" value="" style="edgeStyle=none;orthogonalLoop=1;jettySize=auto;html=1;endArrow=none;endFill=0;entryX=1.004;entryY=0.341;entryDx=0;entryDy=0;entryPerimeter=0;rounded=0;" parent="39" edge="1">
                    <mxGeometry width="100" relative="1" as="geometry">
                        <mxPoint y="40" as="sourcePoint"/>
                        <mxPoint x="160" y="40.460000000000036" as="targetPoint"/>
                        <Array as="points"/>
                    </mxGeometry>
                </mxCell>
                <mxCell id="48" value="ElementMonster" style="text;html=1;align=center;verticalAlign=middle;resizable=0;points=[];autosize=1;strokeColor=none;fillColor=none;" parent="39" vertex="1">
                    <mxGeometry x="25.159999999999968" width="110" height="30" as="geometry"/>
                </mxCell>
                <mxCell id="43" value="" style="group" parent="1" vertex="1" connectable="0">
                    <mxGeometry x="440" y="360" width="160.32" height="90" as="geometry"/>
                </mxCell>
                <mxCell id="44" value="" style="group;fillColor=#eeeeee;strokeColor=#36393d;container=0;" parent="43" vertex="1" connectable="0">
                    <mxGeometry x="0.3200000000000216" width="160" height="90" as="geometry"/>
                </mxCell>
                <mxCell id="45" value="" style="edgeStyle=none;orthogonalLoop=1;jettySize=auto;html=1;endArrow=none;endFill=0;entryX=1.004;entryY=0.341;entryDx=0;entryDy=0;entryPerimeter=0;rounded=0;" parent="43" edge="1">
                    <mxGeometry width="100" relative="1" as="geometry">
                        <mxPoint x="0.3199999999999932" y="30" as="sourcePoint"/>
                        <mxPoint x="160.32" y="30.460000000000036" as="targetPoint"/>
                        <Array as="points"/>
                    </mxGeometry>
                </mxCell>
                <mxCell id="46" value="" style="edgeStyle=none;orthogonalLoop=1;jettySize=auto;html=1;endArrow=none;endFill=0;entryX=1.004;entryY=0.341;entryDx=0;entryDy=0;entryPerimeter=0;rounded=0;" parent="43" edge="1">
                    <mxGeometry width="100" relative="1" as="geometry">
                        <mxPoint y="40" as="sourcePoint"/>
                        <mxPoint x="160" y="40.460000000000036" as="targetPoint"/>
                        <Array as="points"/>
                    </mxGeometry>
                </mxCell>
                <mxCell id="49" value="MechanicMonster" style="text;html=1;align=center;verticalAlign=middle;resizable=0;points=[];autosize=1;strokeColor=none;fillColor=none;" parent="43" vertex="1">
                    <mxGeometry x="20.159999999999968" width="120" height="30" as="geometry"/>
                </mxCell>
                <mxCell id="50" style="edgeStyle=orthogonalEdgeStyle;rounded=0;html=1;entryX=0.496;entryY=-0.03;entryDx=0;entryDy=0;entryPerimeter=0;endArrow=classic;endFill=1;dashed=1;" parent="1" source="18" target="47" edge="1">
                    <mxGeometry relative="1" as="geometry"/>
                </mxCell>
                <mxCell id="53" style="edgeStyle=orthogonalEdgeStyle;rounded=0;html=1;dashed=1;endArrow=classic;endFill=1;" parent="1" source="24" target="48" edge="1">
                    <mxGeometry relative="1" as="geometry"/>
                </mxCell>
                <mxCell id="54" style="edgeStyle=orthogonalEdgeStyle;rounded=0;html=1;dashed=1;endArrow=classic;endFill=1;" parent="1" source="30" target="49" edge="1">
                    <mxGeometry relative="1" as="geometry"/>
                </mxCell>
                <mxCell id="55" value="" style="group" parent="1" vertex="1" connectable="0">
                    <mxGeometry x="280.64" y="480" width="160.32" height="90" as="geometry"/>
                </mxCell>
                <mxCell id="56" value="" style="group;fillColor=#eeeeee;strokeColor=#36393d;container=0;" parent="55" vertex="1" connectable="0">
                    <mxGeometry x="0.3200000000000216" width="160" height="90" as="geometry"/>
                </mxCell>
                <mxCell id="57" value="" style="edgeStyle=none;orthogonalLoop=1;jettySize=auto;html=1;endArrow=none;endFill=0;entryX=1.004;entryY=0.341;entryDx=0;entryDy=0;entryPerimeter=0;rounded=0;" parent="55" edge="1">
                    <mxGeometry width="100" relative="1" as="geometry">
                        <mxPoint x="0.3199999999999932" y="30" as="sourcePoint"/>
                        <mxPoint x="160.32" y="30.460000000000036" as="targetPoint"/>
                        <Array as="points"/>
                    </mxGeometry>
                </mxCell>
                <mxCell id="58" value="" style="edgeStyle=none;orthogonalLoop=1;jettySize=auto;html=1;endArrow=none;endFill=0;entryX=1.004;entryY=0.341;entryDx=0;entryDy=0;entryPerimeter=0;rounded=0;" parent="55" edge="1">
                    <mxGeometry width="100" relative="1" as="geometry">
                        <mxPoint y="40" as="sourcePoint"/>
                        <mxPoint x="160" y="40.460000000000036" as="targetPoint"/>
                        <Array as="points"/>
                    </mxGeometry>
                </mxCell>
                <mxCell id="59" value="Monster" style="text;html=1;align=center;verticalAlign=middle;resizable=0;points=[];autosize=1;strokeColor=none;fillColor=none;" parent="55" vertex="1">
                    <mxGeometry x="45.15999999999997" width="70" height="30" as="geometry"/>
                </mxCell>
                <mxCell id="61" style="edgeStyle=orthogonalEdgeStyle;rounded=0;html=1;endArrow=classic;endFill=1;" parent="1" target="59" edge="1">
                    <mxGeometry relative="1" as="geometry">
                        <mxPoint x="360.79999999999995" y="449.9999999999999" as="sourcePoint"/>
                    </mxGeometry>
                </mxCell>
                <mxCell id="70" value="" style="group" parent="1" vertex="1" connectable="0">
                    <mxGeometry x="40.31999999999999" y="40" width="200" height="120" as="geometry"/>
                </mxCell>
                <mxCell id="63" value="" style="group;fillColor=#eeeeee;strokeColor=#36393d;container=0;" parent="70" vertex="1" connectable="0">
                    <mxGeometry x="7.105427357601002e-15" width="160" height="120" as="geometry"/>
                </mxCell>
                <mxCell id="64" value="" style="edgeStyle=none;orthogonalLoop=1;jettySize=auto;html=1;endArrow=none;endFill=0;rounded=0;" parent="70" edge="1">
                    <mxGeometry width="100" relative="1" as="geometry">
                        <mxPoint y="29.996666666666655" as="sourcePoint"/>
                        <mxPoint x="159.68" y="30" as="targetPoint"/>
                        <Array as="points"/>
                    </mxGeometry>
                </mxCell>
                <mxCell id="65" value="" style="edgeStyle=none;orthogonalLoop=1;jettySize=auto;html=1;endArrow=none;endFill=0;entryX=1.004;entryY=0.341;entryDx=0;entryDy=0;entryPerimeter=0;rounded=0;" parent="70" edge="1">
                    <mxGeometry width="100" relative="1" as="geometry">
                        <mxPoint x="7.105427357601002e-15" y="39.99555555555554" as="sourcePoint"/>
                        <mxPoint x="160" y="40.404444444444465" as="targetPoint"/>
                        <Array as="points"/>
                    </mxGeometry>
                </mxCell>
                <mxCell id="68" value="MonsterConstructor" style="text;html=1;align=center;verticalAlign=middle;resizable=0;points=[];autosize=1;strokeColor=none;fillColor=none;" parent="70" vertex="1">
                    <mxGeometry x="15" width="130" height="30" as="geometry"/>
                </mxCell>
                <mxCell id="69" value="-mBuilder:MonsterBuilder*&lt;br&gt;+constructor(MonsterBuilder*)&lt;br&gt;+setBuilder(MonsterBuilder*)&lt;br&gt;MonsterV2* build()&lt;br&gt;" style="text;html=1;align=left;verticalAlign=middle;resizable=0;points=[];autosize=1;strokeColor=none;fillColor=none;" parent="70" vertex="1">
                    <mxGeometry y="40" width="180" height="70" as="geometry"/>
                </mxCell>
                <mxCell id="73" value="" style="rhombus;whiteSpace=wrap;html=1;fontSize=10;rotation=-180;" parent="70" vertex="1">
                    <mxGeometry x="160" y="50.000000000000114" width="20" height="20" as="geometry"/>
                </mxCell>
                <mxCell id="72" style="edgeStyle=none;rounded=0;html=1;exitX=0;exitY=0.5;exitDx=0;exitDy=0;strokeColor=default;fontSize=10;endArrow=classic;endFill=1;entryX=0;entryY=0.5;entryDx=0;entryDy=0;" parent="1" source="73" target="4" edge="1">
                    <mxGeometry relative="1" as="geometry">
                        <mxPoint x="240.32" y="100.00000000000011" as="targetPoint"/>
                    </mxGeometry>
                </mxCell>
            </root>
        </mxGraphModel>
    </diagram>
</mxfile>